<svg viewBox="0 0 24 24" width="24" height="24" color="currentColor" size="24"><path fill="currentColor" fill-rule="evenodd" d="M20.77 15.635a9.25 9.25 0 01-8.268 5.115 9.13 9.13 0 01-3.854-.842l-5.41 1.804a.75.75 0 01-.95-.95l1.804-5.41A9.128 9.128 0 013.25 11.5a9.249 9.249 0 015.112-8.27 9.128 9.128 0 014.138-.98l.541.001c4.698.26 8.449 4.01 8.709 8.749v.5a9.127 9.127 0 01-.98 4.135zM8.464 18.39a.75.75 0 01.575.042 7.632 7.632 0 003.462.819 7.751 7.751 0 006.93-4.288 7.63 7.63 0 00.82-3.46l.001-.46C20.034 7.106 16.893 3.965 13 3.75h-.502a7.634 7.634 0 00-3.463.82 7.75 7.75 0 00-4.285 6.932 7.63 7.63 0 00.82 3.46.75.75 0 01.042.575l-1.426 4.277 4.277-1.425z"></path></svg>