<svg xmlns="http://www.w3.org/2000/svg" viewBox="0 0 24 24" width="24" height="24" color="currentColor" size="24"><path fill="currentColor" fill-rule="evenodd" d="M3 2.25h7a.75.75 0 01.75.75v7a.75.75 0 01-.75.75H3a.75.75 0 01-.75-.75V3A.75.75 0 013 2.25zm.75 7h5.5v-5.5h-5.5v5.5zm10.25-7h7a.75.75 0 01.75.75v7a.75.75 0 01-.75.75h-7a.75.75 0 01-.75-.75V3a.75.75 0 01.75-.75zm.75 7h5.5v-5.5h-5.5v5.5zm-.75 4h7a.75.75 0 01.75.75v7a.75.75 0 01-.75.75h-7a.75.75 0 01-.75-.75v-7a.75.75 0 01.75-.75zm.75 7h5.5v-5.5h-5.5v5.5zM3 13.25h7a.75.75 0 01.75.75v7a.75.75 0 01-.75.75H3a.75.75 0 01-.75-.75v-7a.75.75 0 01.75-.75zm.75 7h5.5v-5.5h-5.5v5.5z"></path></svg>